<?xml version="1.0" encoding="utf-8"?>
<!-- Generator: Adobe Illustrator 21.0.1, SVG Export Plug-In . SVG Version: 6.00 Build 0)  -->
<svg version="1.1" id="Layer_1" xmlns="http://www.w3.org/2000/svg" xmlns:xlink="http://www.w3.org/1999/xlink" x="0px" y="0px"
	 viewBox="0 0 144.1 50.7" style="enable-background:new 0 0 144.1 50.7;" xml:space="preserve">
<style type="text/css">
	.st0{fill:#565655;}
	.st1{clip-path:url(#SVGID_2_);fill:#565655;}
</style>
<polygon class="st0" points="86.7,35 84.2,44.7 81,35 75.7,35 72.6,44.7 70.1,35 64.4,35 70.1,50.3 75.4,50.3 78.4,41.1 81.5,50.3 
	86.7,50.3 92.3,35 "/>
<g>
	<defs>
		<rect id="SVGID_1_" y="0" width="144.1" height="50.7"/>
	</defs>
	<clipPath id="SVGID_2_">
		<use xlink:href="#SVGID_1_"  style="overflow:visible;"/>
	</clipPath>
	<path class="st1" d="M101.6,34.7c-2.7,0-4.8,0.8-6.4,2.3c-1.6,1.5-2.4,3.4-2.4,5.8c0,2.5,0.9,4.5,2.8,6.1c1.5,1.3,3.5,1.9,6,1.9
		c2.8,0,4.9-0.8,6.5-2.3c1.6-1.5,2.3-3.4,2.3-5.8c0-2.1-0.6-3.9-1.9-5.3C107,35.6,104.6,34.7,101.6,34.7 M103.7,45.8
		c-0.5,0.6-1.2,1-2.1,1c-0.8,0-1.5-0.3-2.1-1c-0.6-0.7-0.8-1.7-0.8-3c0-1.3,0.3-2.3,0.8-3c0.6-0.7,1.3-1,2.1-1c0.8,0,1.5,0.3,2,1
		c0.5,0.6,0.8,1.6,0.8,3C104.5,44.1,104.2,45.1,103.7,45.8"/>
	<path class="st1" d="M119.9,35.3c-0.6,0.4-1.1,1.2-1.6,2.2V35h-5.5v15.3h5.9v-5.1c0-2.5,0.3-4.1,0.9-5c0.4-0.6,1-1,1.8-1
		c0.4,0,1,0.1,1.6,0.4l1.8-4.2c-1-0.5-2-0.8-2.8-0.8C121.1,34.7,120.4,34.9,119.9,35.3"/>
	<polygon class="st1" points="138.3,40.4 143.8,35 136.5,35 132.2,40.1 132.2,29.2 126.2,29.2 126.2,50.3 132.2,50.3 132.2,46.4 
		134.4,44.2 137.5,50.3 144.1,50.3 	"/>
	<rect x="51.2" y="0" class="st1" width="8" height="8"/>
	<path class="st1" d="M20.9,13.7c1.4-0.5,2.4-1.1,3.1-2c1.1-1.2,1.6-2.7,1.6-4.4c0-2.1-0.8-3.8-2.3-5.2C21.9,0.7,19.7,0,16.9,0H0
		v29.2h15.6c0.7,0,2-0.1,4-0.4c1.5-0.2,2.7-0.5,3.4-1c1.2-0.7,2.2-1.7,2.9-2.9c0.7-1.2,1.1-2.6,1.1-4.1c0-1.9-0.5-3.4-1.5-4.6
		C24.5,15,23,14.2,20.9,13.7 M9.1,5.9h4c1.4,0,2.3,0.2,2.9,0.7c0.6,0.5,0.8,1.1,0.8,2c0,0.9-0.3,1.6-0.8,2.1
		c-0.6,0.5-1.5,0.7-2.9,0.7H9.1V5.9z M17,22.1c-0.6,0.6-1.7,0.8-3.3,0.8H9.1V17h4.6c1.6,0,2.7,0.3,3.3,0.8c0.6,0.5,0.9,1.2,0.9,2.1
		C17.9,20.8,17.6,21.5,17,22.1"/>
	<rect x="30.6" y="8" class="st1" width="8.1" height="21.1"/>
	<path class="st1" d="M83.7,23.9c-0.7,0-1.1-0.2-1.4-0.7c-0.2-0.3-0.3-0.9-0.3-1.8V14h4.5V8h-4.5V0L74,4.2V8h-3V14h3v7.4
		c0,2.4,0.2,4.1,0.7,5.1c0.5,1.1,1.2,1.8,2.1,2.4c1,0.5,2.4,0.8,4.5,0.8c1.7,0,3.6-0.2,5.6-0.7l-0.6-5.6
		C85.2,23.8,84.3,23.9,83.7,23.9"/>
	<path class="st1" d="M130.7,7.6c-1.1,0-2.1,0.3-2.9,0.8c-0.8,0.6-1.5,1.6-2.3,3.1V8H118v21.1h8.1v-7.1c0-3.4,0.4-5.7,1.3-6.9
		c0.6-0.9,1.4-1.3,2.5-1.3c0.6,0,1.3,0.2,2.3,0.6l2.5-5.8C133.2,7.9,131.9,7.6,130.7,7.6"/>
	<path class="st1" d="M64.8,15.4c1.7-2,2.6-4.4,2.6-7.3c0,0,0,0,0-0.1h-8.1c0,0,0,0,0,0c0,1.8-0.4,3.2-1.1,4.1
		c-0.8,0.9-1.7,1.3-2.8,1.3c-1.2,0-2.2-0.5-2.9-1.4c-0.8-0.9-1.1-2.3-1.2-4.1h-8.1c0,3.2,1.1,5.8,3.3,7.9c1.3,1.3,3,2.2,4.9,2.7
		c-1.9,0.5-3.5,1.4-4.9,2.7c-2.2,2.1-3.2,4.7-3.3,7.9h8.1c0-1.8,0.4-3.2,1.2-4.1c0.8-0.9,1.7-1.4,2.9-1.4c1.1,0,2.1,0.4,2.8,1.3
		c0.8,0.9,1.1,2.3,1.1,4.1c0,0,0,0,0,0h8.1c0,0,0,0,0-0.1c0-2.9-0.9-5.3-2.6-7.3c-1.4-1.6-3.2-2.6-5.5-3.2
		C61.6,18.1,63.4,17,64.8,15.4"/>
	<rect x="132.2" y="21.2" class="st1" width="8.1" height="8"/>
	<path class="st1" d="M102.3,7.6c-7.5,0-12.2,4.5-12.2,11c0,5.8,3.5,11.1,11.9,11.1c6.3,0,10.2-2.7,11.8-6.4h-8
		c-0.6,0.7-1.7,1.6-3.7,1.6c-2.4,0-3.8-2.6-3.8-4.3h16.2C114.7,16.2,113.2,7.6,102.3,7.6 M98.3,16.7c0.1-1.3,0.4-2.2,0.9-2.8
		c0.8-1,1.8-1.5,3.1-1.5c1.1,0,2,0.3,2.7,1c0.7,0.7,1.1,1.8,1.3,3.4H98.3z"/>
</g>
</svg>
