<?xml version="1.0" encoding="utf-8"?>
<!-- Generator: Adobe Illustrator 21.0.1, SVG Export Plug-In . SVG Version: 6.00 Build 0)  -->
<svg version="1.1" id="Isolation_Mode" xmlns="http://www.w3.org/2000/svg" xmlns:xlink="http://www.w3.org/1999/xlink" x="0px"
	 y="0px" viewBox="0 0 112.2 112.2" style="enable-background:new 0 0 112.2 112.2;" xml:space="preserve">
<style type="text/css">
	.st0{fill:#FFFFFF;}
	.st1{fill:#DC4E41;}
</style>
<g>
	<g>
		<path class="st0" d="M56.1,0C25.1,0,0,25.1,0,56.1c0,31,25.1,56.1,56.1,56.1c31,0,56.1-25.1,56.1-56.1C112.2,25.1,87.1,0,56.1,0z
			 M63.5,67.4c0,0.2-0.1,0.3-0.2,0.5c-0.7,2.1-1.8,4.1-3.3,5.9c-5.1,6.6-14.1,9-22.1,7.4c-1-0.2-1.9-0.5-2.8-0.8
			c-0.3-0.1-0.6-0.2-0.8-0.3c-0.3-0.1-0.6-0.2-0.8-0.3c-0.5-0.2-1.1-0.5-1.6-0.8c-0.5-0.3-1-0.6-1.5-0.9c-0.5-0.3-1-0.6-1.5-1
			c-5.8-4.3-9.5-11.3-9.3-18.6c-0.5-11.9,10-23,21.9-23.1c3.7-0.3,7.3,0.4,10.6,1.9c0.6,0.3,1.2,0.6,1.8,0.9
			c0.3,0.2,0.6,0.3,0.9,0.5c0.6,0.4,1.2,0.7,1.7,1.1c0.5,0.4,1.1,0.8,1.6,1.3c-0.5,0.5-0.9,1-1.4,1.5c-1,1-1.9,2-2.9,3
			c-0.5,0.5-1,1-1.5,1.5c-4.1-2.5-8.9-4.3-13.7-2.7c-7.6,2.2-12.3,11.2-9.4,18.7c2.3,7.8,11.8,12.1,19.3,8.8
			c3.8-1.4,6.4-4.9,7.5-8.8v0c-1.1,0-2.2,0-3.3,0c-3.3,0-6.6,0-9.9-0.1c0-2.6,0-5.3,0-7.9c7.4,0,14.8,0,22.1,0
			c0.1,0.9,0.1,1.9,0.1,2.9C64.8,61.3,64.5,64.5,63.5,67.4z M92.3,61.9l-6.6,0c0,2.2,0,4.4,0,6.6c-2.2,0-4.4,0-6.6,0
			c0-2.2,0-4.4,0-6.6c-2.2,0-4.4,0-6.6,0v-6.6c2.2,0,4.4,0,6.6-0.1c0-2.2,0-4.4,0-6.6h6.6c0,2.2,0,4.4,0,6.6c2.2,0,4.4,0,6.6,0.1
			V61.9z"/>
	</g>
	<g>
		<path class="st1" d="M30.3,78.2c1,0.6,2,1.2,3.1,1.6C32.4,79.4,31.3,78.8,30.3,78.2z"/>
		<path class="st1" d="M35.1,80.5c0.9,0.3,1.9,0.6,2.8,0.8C37,81,36,80.8,35.1,80.5c-0.3-0.1-0.6-0.2-0.8-0.3
			C34.6,80.3,34.8,80.4,35.1,80.5z"/>
		<path class="st1" d="M52.6,63.3c1.1,0,2.2,0,3.3,0v0C54.8,63.3,53.7,63.3,52.6,63.3z"/>
		<path class="st1" d="M58.1,41.2L58.1,41.2c-0.5,0.5-0.9,1-1.4,1.5C57.1,42.3,57.6,41.7,58.1,41.2z"/>
		<path class="st1" d="M64.8,58.2c0-1,0-1.9-0.1-2.9h0C64.8,56.3,64.8,57.2,64.8,58.2z"/>
		<path class="st1" d="M85.7,68.6c-2.2,0-4.4,0-6.6,0C81.3,68.6,83.5,68.5,85.7,68.6z"/>
		<g>
			<path class="st0" d="M54.8,38.8c1.2,0.7,2.3,1.5,3.3,2.4v0h0C57,40.3,55.9,39.5,54.8,38.8z"/>
			<path class="st0" d="M79,55.3c-2.2,0-4.4,0-6.6,0.1v0C74.6,55.3,76.8,55.3,79,55.3z"/>
		</g>
	</g>
</g>
</svg>
